<svg xmlns="http://www.w3.org/2000/svg" width="16.162" height="16.016" viewBox="0 0 16.162 16.016"><path fill="#2a77a3" d="M.424 13.455c-.586.586-.586 1.535 0 2.12.293.294.677.44 1.06.44.385 0 .77-.146 1.062-.44l4.925-4.924-2.12-2.12-4.926 4.925zM12.733 4.327l2.143-1.11L16 1.048 14.953 0l-2.17 1.124-1.11 2.143-2.61 2.612 1.058 1.06z"/><path fill="#3594cb" d="M13.202 10.02L13 10c-.366 0-.713.075-1.037.195L5.805 4.037C5.925 3.713 6 3.367 6 3l-.02-.202C5.874 1.238 4.588 0 3 0c-.462 0-.895.113-1.286.3l1.993 1.993c.105.105.177.23.225.36.13.354.06.768-.225 1.054C3.512 3.902 3.257 4 3 4c-.118 0-.235-.026-.347-.068-.13-.05-.255-.12-.36-.226L.3 1.714C.113 2.104 0 2.538 0 3c0 1.588 1.237 2.874 2.798 2.98L3 6c.366 0 .713-.075 1.037-.194l6.157 6.157c-.12.324-.194.67-.194 1.037l.02.202C10.127 14.762 11.413 16 13 16c.462 0 .896-.112 1.286-.3l-1.993-1.993c-.104-.104-.177-.23-.226-.36-.13-.354-.06-.768.226-1.054.194-.195.45-.293.707-.293.118 0 .235.026.347.068.13.05.256.12.36.225l1.993 1.993c.188-.39.3-.824.3-1.286 0-1.588-1.237-2.874-2.798-2.98z"/></svg>